<?xml version="1.0" encoding="utf-8"?>
<!-- Generator: Adobe Illustrator 19.0.0, SVG Export Plug-In . SVG Version: 6.00 Build 0)  -->
<svg version="1.1" id="Capa_1" xmlns="http://www.w3.org/2000/svg" xmlns:xlink="http://www.w3.org/1999/xlink" x="0px" y="0px"
	 viewBox="-223 25 512 512" style="enable-background:new -223 25 512 512;" xml:space="preserve">
<style type="text/css">
	.st0{fill:#F1B986;}
	.st1{fill:#F1D0A5;}
	.st2{fill:#DD636E;}
	.st3{fill:#454045;}
	.st4{fill:#783400;}
	.st5{fill:#DFEAEF;}
	.st6{fill:#DA4A54;}
	.st7{fill:#C32430;}
</style>
<g>
	<g>
		<path class="st0" d="M154.2,239.3h0.2c14.8,0,26.8-12,26.8-26.8c0-14.8-12-26.8-26.8-26.8c-0.2,0-0.4,0-0.6,0H-91.6
			c-0.2,0-0.4,0-0.6,0c-14.8,0-26.8,12-26.8,26.8c0,14.8,12,26.8,26.8,26.8h0.2"/>
		<path class="st1" d="M148.1,115.7c-78-7.6-155.9-7.6-233.9,0c-6.1,48.5-7.8,97-5.3,145.4c1.8,35.3,30.1,63.4,65.3,65
			c38,1.8,75.9,1.8,113.9,0c35.3-1.7,63.5-29.8,65.3-65C155.9,212.7,154.1,164.2,148.1,115.7L148.1,115.7z"/>
		<path class="st0" d="M-85.9,115.7c39-3.8,78-5.7,117-5.7c-19.7,0-39.5,1.9-59.2,5.7c-3.1,48.9-4,97.9-2.7,146.8
			c0.8,32.2,12.6,58.5,28,64.5c-7.7-0.2-15.4-0.5-23.1-0.9c-35.3-1.7-63.5-29.8-65.4-65C-93.7,212.7-91.9,164.2-85.9,115.7
			L-85.9,115.7z"/>
		<path class="st2" d="M31.1,287.3c-13.6,0-26.2-8-32.1-20.3c-1.8-3.9-0.2-8.5,3.7-10.3c3.9-1.8,8.5-0.2,10.3,3.7
			c3.3,7,10.4,11.4,18.1,11.4c7.7,0,14.8-4.5,18.1-11.4c1.8-3.9,6.4-5.5,10.3-3.7c3.9,1.8,5.5,6.4,3.7,10.3
			C57.3,279.3,44.7,287.3,31.1,287.3L31.1,287.3z"/>
		<g>
			<ellipse class="st3" cx="-26" cy="218.6" rx="11.2" ry="16.6"/>
			<ellipse class="st3" cx="88.2" cy="218.6" rx="11.2" ry="16.6"/>
		</g>
		<path class="st4" d="M96,156c-44.8,17.3-108.5,9.7-140.6-22.4c0,0-7.6,52.1-47.1,52.1l-17.2,5.8c-46-180.5,52.1-132.2,52.1-132.2
			c9.3-17.9,22.7-25.4,36.8-27.2c1.2-0.2,2.5-0.3,3.7-0.3c0.1,0,0.2,0,0.3,0c9.9-0.5,20,1.5,28.9,4.4c3.1,1,6.1,2.1,8.9,3.2
			C33.1,44,41.3,49.1,43,50.2c0.2,0.2,0.3,0.2,0.3,0.2C53.4,37.1,63,25,73.6,25c4.3,0,7.3,1.7,9.4,4.3c7.6,10,1.4,34.1,0.9,36l0,0.1
			c0,0,0,0,0-0.1l0.1-0.1c1.4-3.4,16.5-40.1,43.7-40.1c1.7,0,3.3,0.2,4.6,0.5c20.3,4.5,4.4,39.9,2.7,43.7l0,0.1
			c0,0.1-0.1,0.2-0.1,0.2c0.9-1.1,34.8-44.2,49.9-24.4c0,0,0,0,0,0C199.9,65.1,140.8,138.7,96,156L96,156z"/>
		<g>
			<path class="st4" d="M184.6,45L184.6,45c-7.6-7.6-34.1,28.3-49.9,24.4l0.1-0.2c0,0.1-0.1,0.2-0.1,0.2
				C135.6,68.3,169.6,25.3,184.6,45z"/>
			<path class="st4" d="M132.2,25.5c-11.5-2.6-22.1,19.2-28.1,34.7c-2.9,7.5-11.9,10.5-18.7,6.3l-1.6-1l0,0l0-0.1h0l0.1-0.1
				c1.4-3.4,16.5-40.1,43.7-40.1C129.3,25,130.9,25.2,132.2,25.5z"/>
			<path class="st4" d="M-19.9,32.1c-32.8,5.8-45.2,81-24.6,101.5c0,0-7.6,52.1-47.1,52.1l-17.2,5.8
				c-46-180.5,52.1-132.2,52.1-132.2C-47.5,41.3-34,33.9-19.9,32.1L-19.9,32.1z"/>
			<path class="st4" d="M83,29.3c-11.5-11.5-19.2,47.6-45.1,57c-25.9,9.5-28.4-2.6-28.4-2.6v0C22.2,79,33,64.1,43.3,50.4
				c0,0,0,0,0,0c0.3-0.4,0.6-0.8,0.9-1.2c0.4-0.5,0.8-1.1,1.2-1.6C54.8,35.4,63.8,25,73.6,25C78,25,81,26.7,83,29.3L83,29.3z"/>
			<path class="st4" d="M-15.9,31.8c-0.1,0-0.2,0-0.3,0C-16.1,31.8-16,31.8-15.9,31.8L-15.9,31.8z"/>
		</g>
	</g>
	<path class="st5" d="M186.1,268.8l-133.9,29l0,0v0H13.8v0l0,0l-133.9-29c-13.7-3-26.6,7.4-26.6,21.4v161.2
		c0,10.3,7.2,19.2,17.3,21.4l143.2,31l0,0v0h38.3v0l0,0l143.2-31c10.1-2.2,17.3-11.1,17.3-21.4V290.2
		C212.6,276.2,199.7,265.8,186.1,268.8L186.1,268.8z"/>
	<path class="st6" d="M227.1,306.2v174.1c0,11.1-7.8,20.8-18.7,23.1L53.7,537l-20-12.6V327.6l20-13.2l144.6-31.3
		C213.1,279.8,227.1,291.1,227.1,306.2z"/>
	<path class="st7" d="M33.7,327.6v196.8L12.3,537l-154.7-33.5c-10.9-2.4-18.7-12-18.7-23.1V306.2c0-15.1,13.9-26.3,28.7-23.1
		l144.6,31.3L33.7,327.6z"/>
	<path class="st2" d="M12.3,537V314.4h41.4V537"/>
	<path class="st3" d="M105.9,373.3c-3.6,0-6.8-2.5-7.5-6.1c-0.9-4.2,1.7-8.3,5.9-9.2l85.6-18.5c4.2-0.9,8.3,1.7,9.2,5.9
		s-1.7,8.3-5.9,9.2l-85.6,18.5C107,373.2,106.5,373.3,105.9,373.3z"/>
	<path class="st3" d="M105.9,402c-3.6,0-6.8-2.5-7.5-6.1c-0.9-4.2,1.7-8.3,5.9-9.2l85.6-18.5c4.2-0.9,8.3,1.7,9.2,5.9
		s-1.7,8.3-5.9,9.2l-85.6,18.5C107,401.9,106.5,402,105.9,402z"/>
	<g>
		<g>
			<path class="st1" d="M-165.3,390.3h-8.1c-12,0-21.7-9.7-21.7-21.7v-19.4c0-12,9.7-21.7,21.7-21.7h8.1c12,0,21.7,9.7,21.7,21.7
				v19.4C-143.6,380.6-153.3,390.3-165.3,390.3z"/>
			<path class="st0" d="M-161.1,389.9c-1.3,0.3-2.7,0.4-4.2,0.4h-8.1c-12,0-21.7-9.7-21.7-21.7v-19.4c0-12,9.7-21.7,21.7-21.7h8.1
				c1.4,0,2.8,0.1,4.2,0.4c-10,1.9-17.5,10.7-17.5,21.3v19.4C-178.6,379.2-171.1,388-161.1,389.9L-161.1,389.9z"/>
		</g>
		<g>
			<path class="st1" d="M239.4,390.3h-8.1c-12,0-21.7-9.7-21.7-21.7v-19.4c0-12,9.7-21.7,21.7-21.7h8.1c12,0,21.7,9.7,21.7,21.7
				v19.4C261.1,380.6,251.4,390.3,239.4,390.3z"/>
			<path class="st0" d="M243.6,389.9c-1.3,0.3-2.7,0.4-4.2,0.4h-8.1c-12,0-21.7-9.7-21.7-21.7v-19.4c0-12,9.7-21.7,21.7-21.7h8.1
				c1.4,0,2.8,0.1,4.2,0.4c-10,1.9-17.5,10.7-17.5,21.3v19.4C226.1,379.2,233.6,388,243.6,389.9L243.6,389.9z"/>
		</g>
	</g>
</g>
</svg>
